<svg width="134" height="20" viewBox="0 0 134 20" fill="none" xmlns="http://www.w3.org/2000/svg">
<path fill-rule="evenodd" clip-rule="evenodd" d="M59.0539 2.26794H57.5796V14.2744H59.0539V2.26794ZM44.3116 6.07351C45.1343 6.91611 45.5741 8.10295 45.5826 9.50445V9.98203H38.0804C38.1712 11.723 39.4999 13.0167 41.2277 13.0167C42.4684 13.0167 43.3564 12.4843 44.0231 11.3495L44.1035 11.2124L45.367 12.0247L45.2932 12.1514C44.4373 13.6229 43.0311 14.4003 41.2267 14.4003C38.5032 14.4003 36.6014 12.4399 36.6014 9.63118C36.6014 6.85748 38.5618 4.84411 41.2627 4.84411C42.4542 4.84411 43.5371 5.28102 44.3116 6.07351ZM39.2654 6.90078C38.7049 7.34135 38.3107 7.95932 38.1476 8.65334L44.0893 8.65144C43.8302 7.19509 42.7011 6.2286 41.2324 6.2286C40.5195 6.22319 39.8259 6.4602 39.2654 6.90078ZM64.6571 6.26437C63.5866 6.26437 62.4395 7.09752 62.4395 8.33826V14.2724H60.9661V5.00472H62.4395V5.90312C63.0476 5.23925 63.9148 4.87894 64.9266 4.87894C66.4246 4.87894 67.2445 5.63644 67.6852 6.35516C68.3566 5.41326 69.4319 4.87894 70.6745 4.87894C72.7853 4.87894 74.097 6.32868 74.097 8.66169V14.2743H72.6226V8.66169C72.6226 7.21006 71.7876 6.26437 70.4948 6.26437C68.8333 6.26437 68.2413 7.4096 68.2413 8.48201V14.2743H66.766V8.66169C66.766 7.18736 65.9593 6.26437 64.6571 6.26437ZM31.82 6.39038H36.0406V5.0059H30.3457V14.2925H31.82V6.39038ZM84.0456 12.1513C83.1897 13.6227 81.7845 14.4001 79.9791 14.4001C77.2556 14.4001 75.3538 12.4397 75.3538 9.63573C75.3538 6.86204 77.3142 4.84867 80.0151 4.84867C81.2066 4.84867 82.2895 5.28558 83.064 6.07806C83.8867 6.92067 84.3265 8.1075 84.335 9.50901V9.98185H76.8328C76.9236 11.7229 78.2514 13.0166 79.9791 13.0166C81.2199 13.0166 82.1126 12.4841 82.7746 11.3493L82.8559 11.2122L84.1194 12.0245L84.0456 12.1513ZM78.0163 6.90152C77.4571 7.34166 77.0639 7.95856 76.9009 8.65127H82.8361C82.5769 7.19492 81.4487 6.22843 79.9791 6.22843C79.2675 6.22408 78.5755 6.46139 78.0163 6.90152ZM54.2158 13.4441C53.4048 14.0968 52.3923 14.4474 51.3513 14.4361C50.0274 14.4361 48.8292 13.9387 47.9781 13.0639C47.127 12.1892 46.6541 10.9815 46.6541 9.66515C46.6541 8.34876 47.1109 7.15152 47.9724 6.26068C48.8339 5.36985 50.034 4.87998 51.3513 4.87998C52.3924 4.87452 53.4038 5.2271 54.2158 5.87863V5.02751H55.6722V14.2952H54.2158V13.4441ZM51.2795 6.35714C49.4836 6.35714 48.1284 7.77567 48.1284 9.66705H48.1237C48.1237 11.5461 49.4789 12.9628 51.2795 12.9628C53.1434 12.9628 54.3955 11.6454 54.3955 9.66705C54.3955 7.68867 53.1434 6.35714 51.2795 6.35714ZM90.0299 8.99932C90.0299 5.97312 92.3061 3.56352 95.5149 3.56352C97.4469 3.56352 99.1539 4.56689 100.037 6.1093L98.8248 6.80911C98.2252 5.65632 96.9523 4.90734 95.5149 4.90734C93.0561 4.90734 91.4115 6.68995 91.4115 8.99554C91.4115 11.3011 93.0561 13.0733 95.5149 13.0733C96.9523 13.0733 98.2252 12.3243 98.8248 11.182L100.037 11.8704C99.169 13.4128 97.462 14.4313 95.5149 14.4313C92.3061 14.4361 90.0299 12.0104 90.0299 8.99932ZM107.364 14.2415H108.667V6.75353H107.364V8.04439C106.766 7.12897 105.807 6.56156 104.534 6.56156C102.452 6.56156 100.744 8.28365 100.744 10.5003C100.744 12.717 102.453 14.4391 104.534 14.4391C105.807 14.4391 106.766 13.8708 107.364 12.9563V14.2415ZM104.698 7.81743C106.211 7.81743 107.364 8.97022 107.364 10.4975C107.364 12.0257 106.211 13.1785 104.698 13.1785C103.204 13.1785 102.05 12.0248 102.05 10.4975C102.05 8.97022 103.201 7.81743 104.698 7.81743ZM114.334 6.62015V7.98194C113.21 7.93655 111.997 8.50585 111.997 10.2733V14.2452H110.694V6.7535H111.997V8.01126C112.475 6.96249 113.388 6.62015 114.334 6.62015ZM121.508 12.1155C121.133 12.7292 120.384 13.2087 119.351 13.2087C117.958 13.2087 116.895 12.4446 116.64 11.096H122.916C122.945 10.9029 122.96 10.7079 122.961 10.5125C122.961 8.41596 121.493 6.55863 119.232 6.55863C116.895 6.55863 115.308 8.28072 115.308 10.4974C115.308 12.7434 116.91 14.4362 119.322 14.4362C120.819 14.4362 121.954 13.7629 122.616 12.7434L121.508 12.1155ZM121.642 9.95837H116.64C116.85 8.65522 117.824 7.78708 119.232 7.78329C120.354 7.78329 121.418 8.47554 121.642 9.95837Z" fill="white"/>
<path d="M132.633 8.73046H130.372V6.46838C130.372 6.16389 130.251 5.87188 130.036 5.65657C129.82 5.44127 129.528 5.32031 129.224 5.32031C128.919 5.32031 128.627 5.44127 128.412 5.65657C128.197 5.87188 128.076 6.16389 128.076 6.46838V8.73046H125.814C125.509 8.73046 125.217 8.85141 125.002 9.06672C124.786 9.28202 124.666 9.57403 124.666 9.87852C124.666 10.183 124.786 10.475 125.002 10.6903C125.217 10.9056 125.509 11.0266 125.814 11.0266H128.076V13.2877C128.076 13.5922 128.197 13.8842 128.412 14.0995C128.627 14.3148 128.919 14.4358 129.224 14.4358C129.528 14.4358 129.82 14.3148 130.036 14.0995C130.251 13.8842 130.372 13.5922 130.372 13.2877V11.0266H132.633C132.784 11.0266 132.933 10.9969 133.072 10.9392C133.212 10.8815 133.338 10.7969 133.445 10.6903C133.551 10.5837 133.636 10.4572 133.694 10.3179C133.751 10.1786 133.781 10.0293 133.781 9.87852C133.781 9.72775 133.751 9.57846 133.694 9.43917C133.636 9.29988 133.551 9.17332 133.445 9.06672C133.338 8.96011 133.212 8.87554 133.072 8.81785C132.933 8.76015 132.784 8.73046 132.633 8.73046Z" fill="#FFC500"/>
<path fill-rule="evenodd" clip-rule="evenodd" d="M13.9116 5.76889L15.6044 7.46072C15.7218 7.56074 15.8174 7.68395 15.8849 7.82263C15.9525 7.9613 15.9907 8.11245 15.9971 8.26658C16.0036 8.42071 15.9781 8.57451 15.9222 8.71833C15.8664 8.86214 15.7815 8.99287 15.6728 9.10231C15.564 9.21175 15.4339 9.29755 15.2904 9.35431C15.147 9.41108 14.9934 9.43759 14.8392 9.43219C14.685 9.42678 14.5336 9.38958 14.3945 9.3229C14.2554 9.25623 14.1316 9.16153 14.0308 9.04475L12.3285 7.34724L10.7473 5.76605L8.28856 3.30727L8.25074 3.27039C7.62252 2.63863 6.77697 2.27031 5.88652 2.24054C3.963 2.17528 2.29197 3.74228 2.23996 5.66676C2.22115 6.37139 2.41417 7.06545 2.79405 7.65921C3.17393 8.25297 3.7232 8.71911 4.37084 8.99735C5.01848 9.2756 5.7347 9.35315 6.42689 9.21998C7.11908 9.08682 7.7554 8.74905 8.25357 8.25037L8.79545 7.71889L10.3662 6.14716L11.9465 7.72646L9.82625 9.84007C9.27243 10.3962 8.61004 10.8323 7.88034 11.1212C7.15063 11.4102 6.36924 11.5458 5.58485 11.5196C2.60499 11.4326 0.131076 8.9899 0.00530014 6.00815C-0.0444642 4.84862 0.257145 3.70109 0.87062 2.71588C1.48409 1.73067 2.38083 0.95372 3.44336 0.486799C4.50589 0.0198783 5.68468 -0.11524 6.8253 0.0991433C7.96593 0.313527 9.01521 0.867415 9.8357 1.68826L11.0727 2.92521L12.3276 4.18014L13.9116 5.76889ZM23.4374 2.22427C24.1094 3.08793 24.5215 4.12515 24.6254 5.2145C24.7077 6.05957 24.6015 6.91238 24.3143 7.71142C24.0271 8.51046 23.5662 9.2358 22.9647 9.83512L13.1296 19.6703C13.0251 19.7748 12.901 19.8577 12.7645 19.9142C12.628 19.9708 12.4816 19.9999 12.3338 19.9999C12.186 19.9999 12.0397 19.9708 11.9031 19.9142C11.7666 19.8577 11.6425 19.7748 11.538 19.6703L9.04708 17.1869C8.83715 16.9771 8.71916 16.6925 8.71907 16.3957C8.71898 16.0989 8.8368 15.8142 9.04661 15.6043C9.25641 15.3943 9.54101 15.2764 9.83781 15.2763C10.1346 15.2762 10.4193 15.394 10.6292 15.6038L12.3314 17.306L21.3817 8.24826C21.7158 7.92277 21.9819 7.53416 22.1647 7.10499C22.3474 6.67581 22.4431 6.21462 22.4462 5.74817C22.4493 5.28172 22.3597 4.8193 22.1826 4.38776C22.0056 3.95621 21.7445 3.56412 21.4147 3.23426C21.0849 2.90439 20.6929 2.6433 20.2614 2.46616C19.8299 2.28901 19.3675 2.19933 18.901 2.20232C18.4346 2.20531 17.9734 2.30091 17.5441 2.48357C17.1149 2.66623 16.7263 2.93232 16.4007 3.26638L16.0896 3.58697L14.2928 5.38377L12.7078 3.79975L14.8044 1.70222C15.5756 0.925824 16.5519 0.385159 17.6192 0.14351C18.6865 -0.0981386 19.8005 -0.0307713 20.8309 0.337726C21.8613 0.706224 22.7654 1.3606 23.4374 2.22427Z" fill="#FFC500"/>
</svg>
