<svg width="30" height="30" viewBox="0 0 30 30" fill="none" xmlns="http://www.w3.org/2000/svg">
<path d="M9.152 18.112C10.176 18.112 11.072 17.608 11.552 16.816L10.448 16.176C10.208 16.608 9.72 16.864 9.152 16.864C8.16 16.864 7.52 16.2 7.52 15.2C7.52 14.2 8.16 13.536 9.152 13.536C9.72 13.536 10.2 13.792 10.448 14.224L11.552 13.584C11.064 12.792 10.168 12.288 9.152 12.288C7.464 12.288 6.24 13.552 6.24 15.2C6.24 16.848 7.464 18.112 9.152 18.112ZM14.7458 18.112C16.3538 18.112 17.6578 16.848 17.6578 15.2C17.6578 13.552 16.3538 12.288 14.7458 12.288C13.1378 12.288 11.8338 13.552 11.8338 15.2C11.8338 16.848 13.1378 18.112 14.7458 18.112ZM14.7458 16.864C13.8338 16.864 13.1138 16.2 13.1138 15.2C13.1138 14.2 13.8338 13.536 14.7458 13.536C15.6578 13.536 16.3778 14.2 16.3778 15.2C16.3778 16.2 15.6578 16.864 14.7458 16.864ZM20.6184 12.4H18.3784V18H20.6184C22.1624 18 23.3384 16.784 23.3384 15.2C23.3384 13.616 22.1624 12.4 20.6184 12.4ZM20.6184 16.768H19.6584V13.632H20.6184C21.4984 13.632 22.1064 14.24 22.1064 15.2C22.1064 16.16 21.4984 16.768 20.6184 16.768Z" fill="black"/>
<circle cx="15" cy="15" r="11" stroke="black" stroke-width="1.5" stroke-linejoin="round"/>
</svg>
