<svg width="542" height="64" viewBox="0 0 542 64" fill="none" xmlns="http://www.w3.org/2000/svg">
<path fill-rule="evenodd" clip-rule="evenodd" d="M143.033 0H150.771V63.0569H143.033V0ZM57.3409 13.5227C43.1548 13.5227 32.858 24.0978 32.858 38.6369C32.858 53.3864 42.8494 63.6832 57.1509 63.6832C66.6535 63.6832 74.0113 59.6106 78.5047 51.8727L78.8916 51.194L72.2533 46.9245L71.8325 47.7187C68.3301 53.6918 63.6873 56.4679 57.1509 56.4679C48.0758 56.4679 41.0982 49.6803 40.623 40.5374H80.0251V38.026C79.9844 30.6682 77.6698 24.4508 73.3461 20.0049C71.2481 17.9097 68.7498 16.2585 66.0001 15.1495C63.2503 14.0405 60.3054 13.4965 57.3409 13.5499V13.5227ZM40.9828 33.519C41.8388 29.8805 43.9043 26.6403 46.8413 24.3284C49.7784 22.0165 53.4131 20.7698 57.1509 20.7922C64.8684 20.7922 70.794 25.8694 72.1515 33.519H40.9828ZM211.778 13.7085C205.249 13.7085 199.602 16.5186 196.079 21.4599C193.764 17.686 189.461 13.7085 181.594 13.7085C176.272 13.7085 171.725 15.6022 168.528 19.0843V14.3669H160.79V63.0476H168.528V31.8721C168.528 25.356 174.555 21.012 180.175 21.012C187.01 21.012 191.26 25.8379 191.26 33.603V63.0476H198.997V32.6256C198.997 26.9918 202.106 20.978 210.835 20.978C217.623 20.978 222.007 25.9194 222.007 33.569V63.0476H229.752V33.569C229.752 21.3513 222.863 13.7085 211.778 13.7085ZM7.73788 63.1475H0V14.3717H29.9062V21.6412H7.73788V63.1475ZM260.857 13.5227C246.671 13.5227 236.374 24.0978 236.374 38.6369C236.374 53.3864 246.365 63.6832 260.667 63.6832C270.17 63.6832 277.534 59.6106 282.021 51.8727L282.408 51.194L275.776 46.9245L275.349 47.7187C271.853 53.6918 267.203 56.4679 260.667 56.4679C251.592 56.4679 244.621 49.6803 244.146 40.5374H283.548V38.026C283.5 30.6682 281.193 24.4508 276.869 20.0049C274.77 17.9095 272.27 16.2582 269.519 15.1492C266.768 14.0402 263.823 13.4963 260.857 13.5499V13.5227ZM244.499 33.5462C245.349 29.9061 247.409 26.6622 250.342 24.3454C253.276 22.0285 256.909 20.7758 260.647 20.7922C268.364 20.7922 274.29 25.8694 275.654 33.519L244.499 33.5462ZM125.341 18.945C121.073 15.5274 115.76 13.6798 110.292 13.7118C106.999 13.6576 103.728 14.2721 100.678 15.5181C97.6285 16.7641 94.8633 18.6157 92.5497 20.9609C87.9984 25.7949 85.5143 32.2147 85.6263 38.8531C85.5108 45.478 87.9963 51.8843 92.5497 56.6977C94.8699 59.0309 97.6374 60.8714 100.686 62.1089C103.735 63.3464 107.003 63.9554 110.292 63.8994C115.76 63.9557 121.077 62.116 125.341 58.6933V63.146H132.983V14.4584H125.341V18.945ZM109.919 56.1615C100.484 56.1615 93.3642 48.6951 93.3642 38.8531C93.3642 29.0111 100.457 21.4497 109.919 21.4497C119.707 21.4497 126.284 28.4477 126.284 38.8531C126.284 49.2585 119.707 56.1615 109.919 56.1615ZM316.443 12.7811L303.899 18.7881V9.93706L324.676 0V62.541H316.443V12.7811ZM338.018 18.7881L350.554 12.7811V62.541H358.788V0L338.018 9.93706V18.7881ZM400.21 19.0905H410.188L394.658 40.8584L410.188 62.633H400.21L389.669 47.8632L379.121 62.633H369.143L384.673 40.8584L369.143 19.0905H379.127L389.669 33.8603L400.21 19.0905ZM465.391 29.1199C461.4 25.7803 456.607 24.2871 449.84 24.2871H443.86L445.992 10.0331H470.481V1.9219H438.695L434.147 32.3983H449.84C455.684 32.3983 458.196 33.8372 459.879 35.2423C461.148 36.2975 462.17 37.618 462.874 39.1109C463.577 40.6037 463.945 42.2326 463.952 43.8829C463.952 50.2157 458.522 55.3675 451.91 55.3675C445.299 55.3675 439.869 50.2157 439.869 43.8829V43.2041H431.453V43.8829C431.453 54.6888 440.629 63.472 451.91 63.472C463.191 63.472 472.362 54.6888 472.368 43.8829C472.354 41.0585 471.718 38.2719 470.506 35.7206C469.295 33.1693 467.537 30.9158 465.357 29.1199H465.391ZM541.569 28.6365L541.637 29.2135V29.2203C541.771 30.3762 541.839 31.5387 541.841 32.7023C541.841 49.9632 527.472 64 509.81 64C492.149 64 477.779 49.9632 477.779 32.7023C477.779 15.4414 492.162 1.39785 509.81 1.39785C514.052 1.38069 518.256 2.20242 522.179 3.81578C526.102 5.42914 529.668 7.80228 532.671 10.7987L533.139 11.267L527.173 16.9822L526.725 16.5342C524.515 14.2958 521.881 12.5209 518.976 11.3134C516.072 10.1059 512.956 9.49018 509.81 9.50226C496.792 9.50226 486.196 19.9077 486.196 32.6955C486.196 45.4834 496.792 55.8888 509.81 55.8888C521.22 55.8888 531.083 47.7165 533.058 36.7477H509.634L518.105 28.6365H541.569Z" fill="black"/>
</svg>
