<svg width="494" height="64" viewBox="0 0 494 64" fill="none" xmlns="http://www.w3.org/2000/svg">
<path d="M210.853 13.6637C204.352 13.6637 198.729 16.4615 195.221 21.3814C192.917 17.6239 188.632 13.6637 180.8 13.6637C175.501 13.6637 170.973 15.5492 167.79 19.0161V14.3192H160.086V62.7882H167.79V31.7483C167.79 25.2605 173.791 20.9354 179.387 20.9354C186.193 20.9354 190.423 25.7404 190.423 33.4716V62.7882H198.127V32.4985C198.127 26.8892 201.223 20.9016 209.913 20.9016C216.672 20.9016 221.037 25.8215 221.037 33.4378V62.7882H228.748V33.4378C228.748 21.2733 221.889 13.6637 210.853 13.6637Z" fill="black"/>
<path d="M57.0882 13.4657C42.9638 13.4657 32.7118 23.9948 32.7118 38.4706C32.7118 53.156 42.6597 63.408 56.899 63.408C66.3603 63.408 73.6861 59.3531 78.16 51.6489L78.5452 50.9731L71.9357 46.7222L71.5167 47.5129C68.0296 53.4601 63.407 56.2241 56.899 56.2241C47.8634 56.2241 40.9161 49.466 40.443 40.3629H79.6738V37.8624C79.6332 30.5366 77.3287 24.3462 73.0238 19.9196C70.935 17.8336 68.4475 16.1895 65.7097 15.0853C62.9719 13.9812 60.0398 13.4395 57.0882 13.4927M40.8012 33.375C41.6535 29.7524 43.71 26.5262 46.6343 24.2243C49.5586 21.9225 53.1775 20.6812 56.899 20.7036C64.5829 20.7036 70.4827 25.7586 71.8344 33.375H40.8012Z" fill="black"/>
<path d="M0 62.885H7.70423V21.5593H29.7762V14.3214H0V62.885Z" fill="black"/>
<path d="M259.722 13.4657C245.597 13.4657 235.345 23.9948 235.345 38.4706C235.345 53.156 245.293 63.408 259.533 63.408C268.994 63.408 276.326 59.3531 280.794 51.6489L281.179 50.9731L274.576 46.7222L274.15 47.5129C270.67 53.4601 266.041 56.2241 259.533 56.2241C250.497 56.2241 243.556 49.466 243.083 40.3629H282.314V37.8624C282.267 30.5366 279.969 24.3462 275.664 19.9196C273.574 17.8334 271.085 16.1892 268.347 15.0851C265.608 13.9809 262.674 13.4394 259.722 13.4927M243.435 33.402C244.281 29.7778 246.332 26.548 249.253 24.2412C252.174 21.9345 255.791 20.6872 259.512 20.7036C267.196 20.7036 273.096 25.7586 274.454 33.375L243.435 33.402Z" fill="black"/>
<path d="M150.117 0H142.412V62.7827H150.117V0Z" fill="black"/>
<path d="M124.791 18.8752C120.541 15.4724 115.252 13.6329 109.808 13.6647C106.529 13.6107 103.272 14.2225 100.236 15.4631C97.1993 16.7037 94.446 18.5473 92.1425 20.8823C87.611 25.6952 85.1377 32.0871 85.2492 38.6966C85.1342 45.2927 87.6089 51.6712 92.1425 56.4637C94.4526 58.7867 97.2081 60.6192 100.244 61.8514C103.279 63.0835 106.532 63.6898 109.808 63.634C115.251 63.6901 120.546 61.8584 124.791 58.4506V62.8839H132.4V14.4081H124.791V18.8752ZM109.436 55.9298C100.043 55.9298 92.9535 48.4959 92.9535 38.6966C92.9535 28.8974 100.016 21.3689 109.436 21.3689C119.182 21.3689 125.73 28.3365 125.73 38.6966C125.73 49.0568 119.182 55.9298 109.436 55.9298Z" fill="black"/>
<path d="M302.301 19.0916L314.742 13.1309V62.5056H322.906V0.439222L302.301 10.306V19.0916Z" fill="black"/>
<path d="M336.146 19.0916L348.594 13.1309V62.5056H356.758V0.439222L336.146 10.306V19.0916Z" fill="black"/>
<path d="M417.981 29.3359C414.021 26.0176 409.256 24.5376 402.546 24.5376H396.612L398.727 10.3862H423.056V2.34403H391.489L386.975 32.5865H402.519C408.317 32.5865 410.804 34.0125 412.48 35.4114C413.742 36.456 414.759 37.7648 415.46 39.2455C416.16 40.7261 416.527 42.3426 416.535 43.9807C416.535 50.2657 411.176 55.3816 404.587 55.3816C397.997 55.3816 392.638 50.2657 392.638 43.9807V43.3048H384.333V43.9807C384.333 54.699 393.442 63.4237 404.607 63.4237C415.771 63.4237 424.881 54.699 424.881 43.9807C424.868 41.1788 424.238 38.4142 423.036 35.8832C421.834 33.3521 420.09 31.1168 417.927 29.3359" fill="black"/>
<path d="M493.635 29.4323L493.568 28.8647H470.286L461.879 36.9068H485.12C483.16 47.7873 473.374 55.9038 462.055 55.9038C449.126 55.9038 438.604 45.5774 438.604 32.8857C438.604 20.194 449.113 9.87442 462.041 9.87442C465.163 9.86051 468.256 10.4696 471.14 11.666C474.024 12.8624 476.64 14.6221 478.835 16.842L479.281 17.2948L485.235 11.6248L484.768 11.1585C481.786 8.18079 478.243 5.82307 474.345 4.22125C470.446 2.61943 466.269 1.8052 462.055 1.82553C444.524 1.82553 430.291 15.7607 430.291 32.9128C430.291 50.0648 444.544 64 462.055 64C479.565 64 493.818 50.0648 493.818 32.9128C493.816 31.7565 493.748 30.6012 493.615 29.4526" fill="black"/>
</svg>
