<?xml version="1.0" encoding="utf-8"?>
<!-- Generator: Adobe Illustrator 26.3.1, SVG Export Plug-In . SVG Version: 6.00 Build 0)  -->
<svg version="1.1" id="图层_1" xmlns="http://www.w3.org/2000/svg" xmlns:xlink="http://www.w3.org/1999/xlink" x="0px" y="0px"
	 viewBox="0 0 380.33 34.81" style="enable-background:new 0 0 380.33 34.81;" xml:space="preserve">
<style type="text/css">
	.st0{fill:#FFFFFF;}
</style>
<g>
	<path d="M114.83,7.44c-3.54,0-6.6,1.52-8.51,4.2c-1.25-2.05-3.59-4.2-7.85-4.2c-2.88,0-5.35,1.03-7.08,2.92V7.79h-4.2v26.39h4.2
		v-16.9c0-3.53,3.27-5.9,6.31-5.9c3.71,0,6.01,2.62,6.01,6.83v15.98h4.2v-16.5c0-3.05,1.69-6.31,6.42-6.31
		c3.68,0,6.06,2.68,6.06,6.83v15.98h4.2V18.2C124.58,11.56,120.84,7.44,114.83,7.44z"/>
	<path d="M31.09,7.33c-7.69,0-13.27,5.73-13.27,13.63c0,8,5.42,13.58,13.17,13.58c5.14,0,9.14-2.21,11.58-6.41l0.21-0.36l-3.6-2.31
		l-0.23,0.39c-1.9,3.24-4.43,4.75-7.96,4.75c-4.92,0-8.7-3.68-8.96-8.64h21.36V20.6c-0.02-3.99-1.28-7.37-3.62-9.77
		C37.56,8.58,34.48,7.33,31.09,7.33z M22.22,18.18c1.01-4.09,4.54-6.9,8.77-6.9c4.18,0,7.4,2.75,8.14,6.9H22.22z"/>
	<polygon points="0,34.24 4.2,34.24 4.2,11.74 16.22,11.74 16.22,7.79 0,7.79 	"/>
	<path d="M141.43,7.33c-7.69,0-13.27,5.73-13.27,13.63c0,8,5.42,13.58,13.17,13.58c5.14,0,9.14-2.21,11.58-6.41l0.21-0.36l-3.6-2.31
		l-0.23,0.39c-1.9,3.24-4.43,4.75-7.96,4.75c-4.92,0-8.7-3.68-8.96-8.64h21.36V20.6c-0.03-3.99-1.28-7.37-3.62-9.77
		C147.91,8.58,144.82,7.33,141.43,7.33z M132.56,18.18c1.01-4.09,4.54-6.9,8.77-6.9c4.18,0,7.4,2.75,8.13,6.9H132.56z"/>
	<rect x="77.55" width="4.2" height="34.19"/>
	<path d="M67.96,10.27c-2.21-1.81-5.13-2.84-8.16-2.84c-3.75,0-7.17,1.4-9.62,3.93c-2.42,2.5-3.75,5.95-3.75,9.7
		c0,3.75,1.33,7.19,3.75,9.68c2.45,2.52,5.87,3.9,9.62,3.9c3.06,0,5.98-1.02,8.16-2.82v2.42h4.15V7.85h-4.15V10.27z M59.59,30.45
		c-5.12,0-8.97-4.03-8.97-9.38c0-5.38,3.86-9.43,8.97-9.43c5.31,0,8.87,3.79,8.87,9.43C68.47,26.68,64.9,30.45,59.59,30.45z"/>
	<path d="M177.19,6.98c-3.39,0-6.24,1.34-8.22,3.54V7.38h-4.11v26.87h4.11V19.33H169c0,0,0,0,0-0.01c0-4.55,3.65-8.24,8.21-8.24
		c4.55,0,8.2,3.69,8.2,8.24c0,0,0,0,0,0.01h0.01v14.92h4.11V19.32h0C189.53,12.51,184.01,6.98,177.19,6.98z"/>
	<path d="M216.03,10.97c-2.49-2.45-5.89-3.96-9.66-3.96c-7.61,0-13.77,6.17-13.77,13.78c0,7.61,6.17,13.78,13.77,13.78
		c3.76,0,7.17-1.51,9.66-3.96v3.65h4.11V7.38h-4.11V10.97z M206.37,30.44c-5.33,0-9.65-4.32-9.65-9.65c0-5.33,4.32-9.65,9.65-9.65
		s9.65,4.32,9.65,9.65C216.02,26.12,211.7,30.44,206.37,30.44z"/>
	<path d="M275.89,6.76c-7.74,0-14.02,6.28-14.02,14.03c0,7.75,6.28,14.03,14.02,14.03c7.74,0,14.02-6.28,14.02-14.03
		C289.92,13.04,283.64,6.76,275.89,6.76z M275.89,30.69c-5.47,0-9.9-4.43-9.9-9.9s4.43-9.9,9.9-9.9c5.47,0,9.9,4.43,9.9,9.9
		S281.36,30.69,275.89,30.69z"/>
	<path d="M229.55,10.38v-3l-4.13,0v26.87h4.13V19.42c0-6.19,4.25-8.09,8.19-8.09V7.36l0,0c0,0,0,0,0-0.01
		C233.86,7.35,231.03,8.5,229.55,10.38z"/>
	<polygon points="259.01,12.49 259.02,12.49 260.06,11.02 260.06,11.02 260.07,11.02 260.07,11.02 260.84,9.93 260.84,9.92 
		260.85,9.92 260.85,7.39 241.54,7.39 241.54,7.38 241.54,7.38 241.54,11.4 254.55,11.4 241.15,30.22 241.15,30.22 240.37,31.32 
		240.37,34.25 261.35,34.25 261.35,30.11 246.47,30.11 	"/>
	<path d="M321.85,20.22c0,2.26,0.19,5.17,0.32,6.92c-0.75-1.44-2.12-3.89-4.15-6.87L305.54,1.85h-3.91v32.7h4.45V16.19
		c0-2.26-0.19-5.17-0.32-6.92c0.75,1.44,2.13,3.89,4.15,6.88l12.47,18.41h3.91V1.85h-4.45V20.22z"/>
	<path d="M352.31,16.3c-2.15-1.8-4.73-2.6-8.37-2.6h-3.29l1.17-7.81h13.23V1.62h-17.08l-2.44,16.37h8.42c3.17,0,4.54,0.78,5.46,1.55
		c1.42,1.19,2.24,2.91,2.24,4.71c0,3.45-2.94,6.26-6.56,6.26c-3.61,0-6.56-2.81-6.56-6.26v-0.3h-4.45v0.3
		c0,5.81,4.94,10.54,11,10.54s11-4.73,11-10.54C356.07,21.2,354.7,18.31,352.31,16.3z"/>
	<path d="M377.08,17.06l-0.06-0.06c-0.05-0.05-0.1-0.09-0.14-0.13c-0.06-0.05-0.12-0.11-0.19-0.16l-0.12-0.1
		c-2.12-1.7-4.62-2.02-5.83-2.06l8.15-8.52l0.08-0.09V1.62h-19.45V5.9h13.59l-8.88,9.82l2.46,3.19l0.33-0.13
		c0.76-0.29,1.57-0.43,2.4-0.43c3.56,0,6.46,2.73,6.46,6.08c0,3.35-2.9,6.08-6.46,6.08s-6.46-2.73-6.46-6.08v-0.3h-4.45v0.3
		c0,5.71,4.89,10.36,10.91,10.36s10.91-4.65,10.91-10.36v0C380.32,21.64,379.17,19.03,377.08,17.06z"/>
</g>
</svg>
