<svg width="32" height="32" viewBox="0 0 32 32" fill="none" xmlns="http://www.w3.org/2000/svg">
<path fill-rule="evenodd" clip-rule="evenodd" d="M13.0001 4.41313V3.34792C7.26664 4.70222 3 9.85289 3 16.0001C3 17.2551 3.17784 18.4685 3.50969 19.6167L1.69906 20.5392C1.24497 19.1073 1 17.5823 1 16.0001C1 8.74318 6.15332 2.6899 13.0001 1.30012V0.587081C13.0001 0.331555 13.2812 0.175773 13.4978 0.311201L16.5587 2.22423C16.7626 2.35165 16.7626 2.64856 16.5587 2.77598L13.4978 4.68901C13.2812 4.82444 13.0001 4.66865 13.0001 4.41313ZM29 16.0001C29 9.85295 24.7334 4.70232 19.0001 3.34796V1.30015C25.8468 2.68999 31 8.74324 31 16.0001C31 17.8329 30.6713 19.5889 30.0696 21.2124L30.8778 21.6604C31.1012 21.7843 31.1012 22.1056 30.8777 22.2295L27.7206 23.9791C27.5104 24.0956 27.2507 23.9517 27.2381 23.7116L27.0488 20.1071C27.0354 19.8519 27.3079 19.6816 27.5314 19.8055L28.2965 20.2296C28.7525 18.9036 29 17.4808 29 16.0001ZM7.00111 24.1535L6.27376 24.6259C8.65521 27.3092 12.1301 29.0001 16 29.0001C19.5965 29.0001 22.8519 27.5396 25.2055 25.1794L26.9147 26.2894C24.1796 29.1897 20.3012 31.0001 16 31.0001C11.4266 31.0001 7.33122 28.9533 4.57992 25.7258L3.79231 26.2373C3.57801 26.3765 3.29428 26.2256 3.28985 25.9701L3.22719 22.3612C3.22302 22.1208 3.47203 21.9591 3.68993 22.0607L6.96138 23.5858C7.19298 23.6938 7.21541 24.0143 7.00111 24.1535ZM10.5001 9.00007C10.5001 8.17164 11.1717 7.50007 12.0001 7.50007H20.0001C20.8285 7.50007 21.5001 8.17164 21.5001 9.00007V23.0001C21.5001 23.8285 20.8285 24.5001 20.0001 24.5001H12.0001C11.1717 24.5001 10.5001 23.8285 10.5001 23.0001V9.00007ZM13.5001 10.0001C13.5001 9.72392 13.724 9.50007 14.0001 9.50007H18.0001C18.2762 9.50007 18.5001 9.72392 18.5001 10.0001C18.5001 10.2762 18.2762 10.5001 18.0001 10.5001H14.0001C13.724 10.5001 13.5001 10.2762 13.5001 10.0001Z" fill="#25D366"/>
</svg>
