<svg width="30" height="30" viewBox="0 0 30 30" fill="none" xmlns="http://www.w3.org/2000/svg">
<path fill-rule="evenodd" clip-rule="evenodd" d="M6.75 6.71707L15 4.75816L23.25 6.71707V16.4854C23.25 18.77 22.0583 20.8827 20.1184 22.0487L15 25.125L9.88163 22.0487C7.94173 20.8827 6.75 18.77 6.75 16.4854V6.71707ZM15.2787 3.28264C15.0954 3.23912 14.9046 3.23912 14.7213 3.28264L6.18174 5.31029C5.63145 5.44095 5.25 5.93357 5.25 6.49232V16.4854C5.25 19.2921 6.71404 21.8949 9.10892 23.3343L14.6136 26.6428L15 26.875L15.3864 26.6428L20.8911 23.3343C23.286 21.8949 24.75 19.2921 24.75 16.4854V6.49232C24.75 5.93358 24.3685 5.44095 23.8183 5.31029L15.2787 3.28264ZM19.9974 9.7826L14.0172 15.7628L11.2346 12.9802L10.174 14.0409L13.4869 17.3538L14.0172 17.8841L14.5476 17.3538L21.0581 10.8433L19.9974 9.7826Z" fill="black"/>
</svg>
