<?xml version="1.0" encoding="utf-8"?>
<!-- Generator: Adobe Illustrator 26.3.1, SVG Export Plug-In . SVG Version: 6.00 Build 0)  -->
<svg version="1.1" id="图层_1" xmlns="http://www.w3.org/2000/svg" xmlns:xlink="http://www.w3.org/1999/xlink" x="0px" y="0px"
	 viewBox="0 0 365.07 34.81" style="enable-background:new 0 0 365.07 34.81;" xml:space="preserve">
<style type="text/css">
	.st0{fill-rule:evenodd;clip-rule:evenodd;}
	.st1{fill:#FFFFFF;}
	.st2{fill-rule:evenodd;clip-rule:evenodd;fill:#FFFFFF;}
</style>
<g>
	<g>
		<path class="st1" d="M91.39,17.28c0-3.53,3.27-5.91,6.31-5.91c3.71,0,6.01,2.62,6.01,6.83v15.98h4.2v-16.5
			c0-3.05,1.69-6.31,6.42-6.31c3.68,0,6.06,2.68,6.06,6.83v15.98h4.2V18.2c0-6.64-3.73-10.77-9.74-10.77c-3.54,0-6.6,1.52-8.51,4.2
			c-1.25-2.05-3.59-4.2-7.85-4.2c-2.88,0-5.35,1.03-7.08,2.92V7.79h-4.2v26.39h4.2V17.28z"/>
		<path class="st1" d="M43.39,20.6c-0.03-3.99-1.28-7.37-3.62-9.77c-2.2-2.26-5.29-3.5-8.68-3.5c-7.69,0-13.27,5.73-13.27,13.63
			c0,8,5.42,13.58,13.17,13.58c5.14,0,9.14-2.21,11.58-6.41l0.21-0.36l-3.6-2.31l-0.23,0.39c-1.9,3.24-4.43,4.75-7.96,4.75
			c-4.92,0-8.7-3.68-8.96-8.64h21.36V20.6z M22.22,18.18c1.01-4.09,4.54-6.9,8.77-6.9c4.18,0,7.4,2.75,8.14,6.9H22.22z"/>
		<polygon class="st1" points="4.2,11.74 16.22,11.74 16.22,7.79 0,7.79 0,34.24 4.2,34.24 		"/>
		<path class="st1" d="M141.33,34.55c5.14,0,9.14-2.21,11.58-6.41l0.21-0.36l-3.6-2.31l-0.23,0.39c-1.9,3.24-4.43,4.75-7.96,4.75
			c-4.92,0-8.7-3.68-8.96-8.64h21.36V20.6c-0.03-3.99-1.28-7.37-3.62-9.77c-2.2-2.26-5.29-3.5-8.68-3.5
			c-7.69,0-13.27,5.73-13.27,13.63C128.16,28.96,133.57,34.55,141.33,34.55z M132.56,18.18c1.01-4.09,4.54-6.9,8.77-6.9
			c4.18,0,7.4,2.75,8.14,6.9H132.56z"/>
		<rect x="77.55" class="st1" width="4.2" height="34.19"/>
		<path class="st1" d="M59.8,34.65c3.06,0,5.98-1.02,8.16-2.82v2.42h4.15V7.85h-4.15v2.43c-2.21-1.81-5.13-2.84-8.16-2.84
			c-3.75,0-7.17,1.4-9.62,3.93c-2.42,2.5-3.75,5.95-3.75,9.7c0,3.75,1.33,7.19,3.75,9.68C52.63,33.26,56.04,34.65,59.8,34.65z
			 M50.62,21.07c0-5.38,3.86-9.43,8.97-9.43c5.31,0,8.87,3.79,8.87,9.43c0,5.61-3.57,9.38-8.87,9.38
			C54.48,30.45,50.62,26.42,50.62,21.07z"/>
	</g>
	<g>
		<g>
			<path class="st1" d="M321.41,7.36v26.59h-3.93l-9.77-14.42c-2.52-3.72-3.53-6.17-3.53-6.17s0.48,2.75,0.48,7.89v12.7h-4.17V7.36
				h3.93l9.77,14.42c2.52,3.72,3.53,6.17,3.53,6.17s-0.48-2.75-0.48-7.89V7.36H321.41z"/>
			<path class="st1" d="M335.24,34.11c-4.98,0-9.04-3.88-9.04-8.65h4.17c0,2.57,2.19,4.66,4.87,4.66s4.87-2.09,4.87-4.66
				c0-1.34-0.61-2.62-1.67-3.51c-0.68-0.57-1.7-1.15-4.11-1.15h-7.04l2.02-13.56h13.57v3.99h-9.96l-0.83,5.59h2.24
				c2.97,0,5.08,0.66,6.85,2.13c1.96,1.64,3.09,4.01,3.09,6.51C344.28,30.23,340.22,34.11,335.24,34.11z"/>
			<path class="st1" d="M356.03,34.11c-4.98,0-9.04-3.88-9.04-8.65h4.17c0,2.57,2.19,4.66,4.87,4.66c2.68,0,4.87-2.09,4.87-4.66
				c0-1.34-0.61-2.62-1.67-3.51c-0.68-0.57-1.7-1.15-4.11-1.15h-7.04l2.02-13.56h13.57v3.99h-9.96l-0.83,5.59h2.23
				c2.97,0,5.08,0.66,6.85,2.13c1.96,1.64,3.09,4.01,3.09,6.51C365.07,30.23,361.02,34.11,356.03,34.11z"/>
		</g>
	</g>
	<g>
		<path class="st2" d="M189.53,34.25h-4.11V19.33h-0.01c0,0,0,0,0-0.01c0-4.55-3.65-8.24-8.2-8.24c-4.55,0-8.2,3.69-8.2,8.24
			c0,0,0,0,0,0.01h-0.03v14.92h-4.11V7.38h4.11v3.14c1.98-2.2,4.84-3.54,8.22-3.54c6.81,0,12.34,5.52,12.34,12.34h0V34.25z"/>
		<path class="st2" d="M216.03,34.25V30.6c-2.49,2.45-5.89,3.96-9.66,3.96c-7.61,0-13.77-6.17-13.77-13.78
			c0-7.61,6.17-13.78,13.77-13.78c3.76,0,7.17,1.51,9.66,3.96V7.38h4.11v26.88H216.03z M206.37,11.13c-5.33,0-9.65,4.32-9.65,9.65
			c0,5.33,4.32,9.65,9.65,9.65c5.33,0,9.65-4.32,9.65-9.65C216.02,15.45,211.7,11.13,206.37,11.13z"/>
		<path class="st2" d="M275.89,6.76c-7.74,0-14.02,6.28-14.02,14.03c0,7.75,6.28,14.03,14.02,14.03c7.74,0,14.02-6.28,14.02-14.03
			C289.92,13.04,283.64,6.76,275.89,6.76z M275.89,30.69c-5.47,0-9.9-4.43-9.9-9.9c0-5.47,4.43-9.9,9.9-9.9c5.47,0,9.9,4.43,9.9,9.9
			C285.79,26.25,281.36,30.69,275.89,30.69z"/>
		<path class="st2" d="M237.73,7.35C237.73,7.35,237.73,7.36,237.73,7.35L237.73,7.35l0,3.98c-3.94,0-8.19,1.9-8.19,8.09v14.84v0
			h-4.13V7.38l4.13,0v3C231.03,8.5,233.86,7.35,237.73,7.35z"/>
		<path class="st2" d="M261.35,34.25h-20.97l0-2.93l0.78-1.1l0,0l13.4-18.83h-13.01V7.38h0v0h19.3v2.54l0,0v0l-0.78,1.09v0l0,0v0
			l-1.05,1.47h0l-12.54,17.61h14.87V34.25z"/>
	</g>
</g>
</svg>
